<?xml version="1.0" standalone="no"?>
<!DOCTYPE svg PUBLIC "-//W3C//DTD SVG 20010904//EN"
 "http://www.w3.org/TR/2001/REC-SVG-20010904/DTD/svg10.dtd">
<svg version="1.0" xmlns="http://www.w3.org/2000/svg"
 width="700.000000pt" height="700.000000pt" viewBox="0 0 700.000000 700.000000"
 preserveAspectRatio="xMidYMid meet">
<metadata>
Created by potrace 1.14, written by Peter Selinger 2001-2017
</metadata>
<g transform="translate(0.000000,700.000000) scale(0.100000,-0.100000)"
fill="#000000" stroke="none">
<path d="M3028 5308 c-24 -19 -1038 -1783 -1038 -1806 0 -48 -62 -46 1510 -46
1575 0 1510 -2 1510 47 0 11 -232 421 -515 912 -374 647 -522 894 -536 898
-14 4 -29 -2 -43 -16 -11 -12 -108 -174 -215 -359 -106 -186 -197 -338 -201
-338 -4 0 -99 158 -210 350 -173 300 -219 370 -242 370 -2 0 -11 -6 -20 -12z
m230 -489 c100 -173 182 -320 182 -326 0 -5 -120 -219 -268 -474 l-267 -464
-393 -3 c-215 -1 -392 0 -392 2 0 3 698 1215 892 1549 36 62 41 67 52 50 7
-10 94 -160 194 -334z m1161 -461 c254 -439 461 -800 461 -803 0 -3 -176 -4
-392 -3 l-392 3 -268 464 c-147 255 -268 468 -268 473 0 18 385 677 392 670 4
-4 214 -366 467 -804z m-676 -379 c131 -227 236 -413 234 -415 -2 -3 -218 -3
-481 -2 l-476 3 237 412 c131 227 240 413 243 413 3 0 112 -185 243 -411z"/>
<path d="M2360 3249 c-198 -22 -327 -150 -361 -357 -29 -176 49 -349 192 -426
71 -39 141 -56 234 -56 142 0 243 39 324 125 120 126 155 335 84 487 -82 174
-245 253 -473 227z m149 -58 c148 -46 238 -163 262 -340 24 -180 -50 -311
-209 -372 -45 -16 -72 -20 -127 -17 -129 9 -227 80 -290 212 -152 317 56 613
364 517z"/>
<path d="M1360 3234 c-160 -43 -271 -170 -300 -346 -39 -227 78 -412 291 -463
136 -32 260 -16 389 50 36 19 73 36 83 39 15 5 17 20 17 123 0 142 4 160 42
179 16 8 26 19 23 24 -8 13 -262 13 -270 0 -6 -10 21 -25 67 -34 20 -5 29 -15
36 -39 13 -46 2 -197 -16 -224 -8 -13 -43 -37 -77 -54 -124 -61 -267 -37 -364
60 -112 112 -153 332 -88 473 35 77 70 113 144 150 57 28 76 32 147 32 71 1
90 -3 148 -31 75 -35 145 -95 174 -148 10 -19 25 -35 32 -35 11 0 12 18 7 93
-8 99 -15 118 -39 98 -12 -10 -23 -8 -58 13 -93 54 -268 72 -388 40z"/>
<path d="M3317 3243 c-137 -4 -158 -14 -80 -40 25 -9 44 -23 52 -39 7 -17 11
-124 11 -338 0 -341 1 -336 -60 -365 -18 -9 -32 -20 -31 -26 1 -13 331 -18
331 -5 0 13 -34 30 -60 30 -12 0 -35 13 -51 30 l-30 29 3 143 3 143 58 3 c53
3 60 1 85 -26 15 -16 49 -65 76 -108 75 -123 144 -209 187 -233 50 -28 162
-27 167 2 3 12 -3 17 -20 17 -40 0 -84 35 -145 117 -98 128 -173 240 -172 254
0 8 19 28 42 44 54 40 84 86 93 142 13 91 -30 165 -118 203 -58 25 -124 29
-341 23z m264 -69 c18 -11 46 -36 62 -57 59 -73 44 -196 -29 -239 -36 -21
-128 -33 -178 -24 l-36 7 0 150 c0 190 1 193 86 186 35 -2 77 -13 95 -23z"/>
<path d="M4493 3243 c-57 -2 -103 -7 -103 -11 0 -15 24 -32 46 -32 13 0 32
-12 43 -26 20 -26 21 -38 21 -339 0 -304 -1 -313 -21 -339 -12 -15 -33 -32
-46 -37 -60 -23 -13 -30 207 -33 295 -5 354 10 467 117 70 66 100 130 114 241
27 219 -63 361 -277 437 -63 22 -229 31 -451 22z m329 -54 c68 -14 157 -61
204 -108 20 -20 51 -65 68 -101 28 -60 31 -73 31 -165 -1 -167 -47 -254 -167
-314 -56 -28 -69 -31 -157 -30 -61 0 -114 7 -146 17 -43 15 -50 21 -57 52 -8
35 -1 575 8 618 2 13 15 27 27 32 31 12 127 12 189 -1z"/>
<path d="M5317 3242 c-30 -6 -18 -30 19 -36 19 -4 44 -16 55 -27 18 -18 19
-35 19 -321 0 -174 -4 -319 -10 -339 -8 -27 -19 -41 -45 -53 -76 -36 -48 -41
230 -41 l264 0 40 39 c43 42 70 101 54 117 -7 7 -23 -3 -45 -25 -48 -48 -123
-68 -259 -70 -76 -1 -112 3 -121 12 -10 10 -13 52 -13 160 l0 147 114 3 c89 2
119 -1 137 -13 13 -8 24 -22 24 -29 0 -8 9 -24 20 -37 l19 -24 1 70 c0 39 3
94 6 123 5 41 4 52 -7 52 -8 0 -20 -13 -26 -30 -15 -41 -46 -50 -173 -50
l-108 0 -7 31 c-11 51 5 258 22 275 16 16 102 18 217 5 72 -8 79 -13 102 -76
6 -16 15 -30 20 -30 10 0 33 141 24 155 -5 9 -533 20 -573 12z"/>
<path d="M4015 3231 c-7 -12 1 -17 41 -25 18 -4 40 -16 50 -28 18 -19 19 -41
17 -332 -1 -193 -6 -322 -12 -339 -7 -17 -24 -34 -46 -43 -65 -27 -40 -34 120
-34 131 0 155 2 155 15 0 10 -10 15 -30 15 -34 0 -65 27 -81 68 -14 36 -12
590 2 630 6 18 23 35 45 45 19 10 32 22 29 27 -8 13 -282 13 -290 1z"/>
<path d="M1555 2198 c-10 -26 0 -398 10 -398 6 0 11 19 13 44 2 30 10 50 26
65 l22 21 69 -70 c46 -48 71 -68 78 -61 7 7 -10 33 -53 82 l-64 71 57 52 c52
46 71 76 48 76 -4 0 -44 -31 -89 -70 -44 -38 -83 -70 -86 -70 -3 0 -6 58 -6
129 0 77 -4 132 -10 136 -6 3 -12 0 -15 -7z"/>
<path d="M2651 2181 c-15 -15 -21 -34 -21 -65 0 -40 -3 -45 -25 -48 -33 -4
-33 -22 -1 -26 25 -3 25 -4 28 -125 4 -162 22 -162 26 0 l3 122 36 3 c53 4 56
28 4 28 -41 0 -41 0 -41 39 0 44 12 58 55 63 42 4 37 22 -7 26 -27 2 -43 -3
-57 -17z"/>
<path d="M1054 2167 c-2 -7 -3 -94 -2 -192 l3 -180 86 -3 c114 -4 158 11 183
61 16 33 17 45 7 78 -7 22 -23 46 -37 55 l-25 17 23 24 c34 36 31 98 -5 129
-26 22 -37 24 -128 24 -72 0 -101 -4 -105 -13z m208 -34 c18 -16 24 -68 10
-89 -15 -23 -53 -34 -116 -34 l-66 0 0 70 0 70 77 0 c57 0 81 -4 95 -17z m17
-177 c27 -25 28 -79 1 -106 -17 -17 -33 -20 -105 -20 l-85 0 0 76 0 76 84 -3
c65 -3 89 -8 105 -23z"/>
<path d="M1414 2155 c-7 -18 3 -35 21 -35 18 0 26 15 19 34 -8 20 -33 21 -40
1z"/>
<path d="M1422 1938 c2 -87 7 -143 13 -143 6 0 11 56 13 143 2 123 0 142 -13
142 -13 0 -15 -19 -13 -142z"/>
<path d="M1873 2046 c-33 -30 -37 -39 -41 -93 -7 -100 45 -163 134 -163 41 0
103 32 112 58 6 18 -17 15 -45 -8 -42 -33 -98 -27 -139 14 -21 21 -34 44 -34
60 l0 26 108 0 c60 0 111 2 114 6 13 13 -13 81 -42 107 -24 22 -40 27 -80 27
-43 0 -56 -5 -87 -34z m146 -22 c54 -45 43 -54 -64 -54 l-96 0 16 30 c29 57
93 67 144 24z"/>
<path d="M2185 2055 c-49 -48 -24 -106 57 -130 81 -24 106 -55 70 -88 -25 -23
-84 -21 -115 3 -30 24 -47 26 -47 5 0 -23 60 -55 103 -55 80 0 127 53 96 109
-9 16 -37 35 -75 51 -76 32 -84 37 -84 59 0 42 76 59 122 27 28 -20 38 -20 38
-2 0 25 -42 46 -93 46 -38 0 -53 -5 -72 -25z"/>
<path d="M2854 2061 c-56 -34 -81 -129 -50 -189 55 -105 202 -110 250 -8 33
70 12 161 -46 196 -42 26 -113 26 -154 1z m145 -37 c54 -45 50 -139 -7 -185
-21 -16 -36 -20 -70 -16 -52 6 -78 28 -93 77 -33 110 85 196 170 124z"/>
<path d="M3155 2068 c-10 -25 0 -268 10 -268 6 0 13 39 16 87 3 49 10 97 16
108 19 35 52 58 83 57 20 0 30 4 30 14 0 9 -11 14 -34 14 -25 0 -42 -8 -65
-32 l-31 -32 0 27 c0 29 -17 46 -25 25z"/>
<path d="M3578 2060 c-57 -44 -73 -131 -38 -199 22 -44 70 -71 125 -71 42 0
105 34 105 56 0 20 -16 17 -50 -7 -22 -17 -38 -21 -70 -16 -22 3 -48 11 -57
19 -20 17 -46 76 -38 88 4 6 56 10 117 10 l111 0 -6 38 c-4 25 -18 48 -42 70
-29 27 -42 32 -84 32 -33 0 -56 -6 -73 -20z m134 -30 c14 -11 28 -29 31 -40 5
-19 1 -20 -89 -20 -104 0 -111 6 -67 52 33 34 88 38 125 8z"/>
<path d="M3837 2073 c-8 -13 111 -278 124 -278 13 0 134 273 125 282 -15 15
-35 -15 -75 -111 -24 -58 -46 -106 -50 -106 -3 0 -26 50 -51 110 -40 98 -60
126 -73 103z"/>
<path d="M4192 2052 c-62 -58 -66 -156 -8 -219 27 -30 41 -36 83 -40 42 -4 59
-1 87 17 20 12 36 28 36 36 0 18 -3 18 -42 -6 -42 -25 -84 -25 -125 0 -30 18
-57 73 -46 93 2 4 53 7 114 7 l109 0 0 28 c0 33 -30 81 -62 98 -13 8 -44 13
-69 14 -38 0 -53 -5 -77 -28z m140 -22 c14 -11 28 -29 31 -40 5 -19 1 -20 -89
-20 -60 0 -94 4 -94 11 0 6 13 24 29 40 35 35 86 39 123 9z"/>
<path d="M4485 2068 c-10 -25 0 -268 10 -268 6 0 13 39 16 87 3 49 10 97 16
108 19 35 52 58 83 57 20 0 30 4 30 14 0 9 -11 14 -34 14 -25 0 -42 -8 -65
-32 l-31 -32 0 27 c0 29 -17 46 -25 25z"/>
<path d="M4710 1969 c0 -146 17 -178 96 -179 27 0 50 7 68 21 l26 20 0 -28 c0
-64 -63 -104 -132 -84 -43 13 -70 3 -45 -17 26 -22 99 -25 136 -5 69 36 76 56
76 226 0 128 -2 152 -15 152 -12 0 -16 -21 -20 -108 -5 -101 -7 -110 -30 -127
-33 -26 -85 -25 -110 0 -18 18 -20 33 -20 130 0 91 -3 110 -15 110 -12 0 -15
-19 -15 -111z"/>
<path d="M5065 2049 c-101 -89 -44 -259 88 -259 82 0 137 58 137 143 0 93 -50
147 -136 147 -45 0 -59 -5 -89 -31z m151 -17 c31 -25 44 -55 44 -102 0 -34 -6
-48 -34 -76 -72 -72 -176 -24 -176 81 0 41 22 89 47 104 28 16 96 12 119 -7z"/>
<path d="M5376 2064 c-9 -24 -7 -247 3 -263 20 -32 31 3 31 100 0 93 2 102 25
124 17 18 35 25 63 25 63 0 75 -22 82 -146 7 -141 25 -132 25 13 0 104 -2 113
-24 137 -32 33 -105 37 -144 6 -25 -20 -25 -20 -30 0 -6 24 -23 26 -31 4z"/>
<path d="M5746 2059 c-54 -43 -72 -122 -42 -194 31 -74 144 -101 205 -49 50
41 34 64 -16 24 -51 -40 -127 -20 -158 40 -30 58 -26 60 100 60 97 0 115 2
115 15 0 30 -28 82 -55 103 -38 30 -112 30 -149 1z m138 -34 c48 -45 37 -55
-64 -55 -100 0 -111 9 -65 55 33 34 92 34 129 0z"/>
</g>
</svg>
