<svg xmlns="http://www.w3.org/2000/svg" version="1.1" xmlns:xlink="http://www.w3.org/1999/xlink" xmlns:svgjs="http://svgjs.dev/svgjs" width="1000" height="741" viewBox="0 0 1000 741"><g transform="matrix(1,0,0,1,0.08806220041952884,0.6053261018033709)"><svg viewBox="0 0 333 247" data-background-color="#755bb4" preserveAspectRatio="xMidYMid meet" height="741" width="1000" xmlns="http://www.w3.org/2000/svg" xmlns:xlink="http://www.w3.org/1999/xlink"><defs></defs><g id="tight-bounds" transform="matrix(1,0,0,1,-0.029324638210283638,-0.09999999999999432)"><svg viewBox="0 0 333.0586380828195 247.2" height="247.2" width="333.0586380828195"><g><svg viewBox="0 0 395.52 293.5595502425838" height="247.2" width="333.0586380828195"><g transform="matrix(1,0,0,1,0,166.40644392975412)"><svg viewBox="0 0 395.52 127.15310631282964" height="127.15310631282964" width="395.52"><g><svg viewBox="0 0 395.52 127.15310631282964" height="127.15310631282964" width="395.52"><g><svg viewBox="0 0 395.52 68.5803097137494" height="68.5803097137494" width="395.52"><g transform="matrix(1,0,0,1,0,0)"><svg width="395.52" viewBox="2.200000047683716 -36.099998474121094 213.08999633789062 36.94999694824219" height="68.5803097137494" data-palette-color="#ffffff"><path d="M28.35-18.5L33.9-18.25 37.9-18.3 38.65-18.3Q39.45-18.3 39.45-17.85L39.45-17.85Q39.45-17.5 38.18-16.95 36.9-16.4 36.75-15.55L36.75-15.55Q36.4-13.4 36.4-10.93 36.4-8.45 36.45-7.3 36.5-6.15 36.52-5.68 36.55-5.2 36.6-4.85 36.65-4.5 36.65-4.3 36.65-4.1 36.27-3.98 35.9-3.85 35.05-3.63 34.2-3.4 33.5-2.98 32.8-2.55 32.45-2.35 32.1-2.15 31.53-1.85 30.95-1.55 30.35-1.25 29.75-0.95 29-0.63 28.25-0.3 27.45-0.05 26.65 0.2 25.8 0.4L25.8 0.4Q23.9 0.85 22.2 0.85L22.2 0.85Q16.75 0.85 12.73-0.63 8.7-2.1 6.5-4.6L6.5-4.6Q2.2-9.55 2.2-16.45L2.2-16.45Q2.2-21.9 4.38-26.25 6.55-30.6 11.05-33.27 15.55-35.95 21.75-35.95L21.75-35.95Q27.7-35.95 32.05-33.7L32.05-33.7Q33.05-33.15 33.58-32.77 34.1-32.4 34.23-32.4 34.35-32.4 34.88-32.77 35.4-33.15 35.6-33.15L35.6-33.15Q36.35-33.15 36.38-31.93 36.4-30.7 36.58-29.1 36.75-27.5 36.9-26.45 37.05-25.4 37.05-25.2L37.05-25.2Q37.05-24.35 36.45-24.35 35.85-24.35 35.6-24.95L35.6-24.95Q33.85-28.75 29.75-31.38 25.65-34 21.3-34L21.3-34Q15.05-34 10.98-30.08 6.9-26.15 6.9-19.2L6.9-19.2Q6.9-14.6 8.6-10.55 10.3-6.5 13.78-3.85 17.25-1.2 21.43-1.2 25.6-1.2 28.73-2.95 31.85-4.7 32.2-6.95L32.2-6.95Q32.35-8.15 32.35-13.25L32.35-13.25Q32.35-15.2 31.63-15.93 30.9-16.65 29.35-16.82 27.8-17 27.63-17.32 27.45-17.65 27.45-17.95L27.45-17.95Q27.45-18.5 28.35-18.5L28.35-18.5ZM43.1-16.95L43.1-16.95Q43.1-25.35 48.15-30.73 53.2-36.1 62.45-36.1L62.45-36.1Q66.75-36.1 70.2-34.85 73.65-33.6 75.65-31.78 77.65-29.95 79-27.6L79-27.6Q81.35-23.5 81.35-19.6L81.35-19.6Q81.35-12.8 78.7-8.1L78.7-8.1Q73.65 0.8 61.75 0.8L61.75 0.8Q55.8 0.8 51.47-1.8 47.15-4.4 45.12-8.35 43.1-12.3 43.1-16.95ZM47.5-19.5L47.5-19.5Q47.5-15.05 49.85-10.4L49.85-10.4Q51.1-7.9 52.87-5.93 54.65-3.95 57.37-2.68 60.1-1.4 63.35-1.4L63.35-1.4Q67.05-1.4 70.65-3.55L70.65-3.55Q74.65-5.9 76.3-10.1L76.3-10.1Q77.25-12.35 77.25-15L77.25-15Q77.25-24.05 72.5-29.08 67.75-34.1 60.75-34.1L60.75-34.1Q55.25-34.1 51.37-30.4 47.5-26.7 47.5-19.5ZM100.04-5.65L100.09-21.4 100.04-29.85Q100.04-31.7 99.29-32.68 98.54-33.65 97.62-33.77 96.69-33.9 95.94-34.1 95.19-34.3 95.19-34.8L95.19-34.8Q95.19-35.6 96.64-35.6L96.64-35.6 104.94-35.6 109.94-35.75Q114.44-35.75 117.64-33.48 120.84-31.2 120.84-27.35L120.84-27.35Q120.84-24.8 119.87-22.88 118.89-20.95 117.72-20.1 116.54-19.25 115.57-18.63 114.59-18 114.59-17.8L114.59-17.8Q114.59-17.2 118.79-11.33 122.99-5.45 124.54-3.8L124.54-3.8Q126.44-1.45 129.14-1.45L129.14-1.45Q129.84-1.45 129.84-0.85L129.84-0.85Q129.84-0.1 129.24 0.15 128.64 0.4 126.22 0.4 123.79 0.4 121.84-0.75L121.84-0.75Q119.14-2.3 112.89-12.75L112.89-12.75Q110.49-16.65 109.19-16.65L109.19-16.65 105.09-16.65Q104.49-16.65 104.37-16.15 104.24-15.65 104.24-13.2L104.24-13.2Q104.24-13.2 104.24-9.15L104.24-9.15 104.29-6.5Q104.29-6.5 104.29-6.05L104.29-6.05Q104.29-4 105.24-2.88 106.19-1.75 107.37-1.58 108.54-1.4 109.49-1.18 110.44-0.95 110.44-0.45L110.44-0.45Q110.44 0.35 109.54 0.35L109.54 0.35Q109.54 0.35 102.39 0L102.39 0 96.89 0.2Q95.84 0.2 95.84-0.6L95.84-0.6Q95.84-1.45 97.94-1.7L97.94-1.7Q98.74-1.8 99.39-2.8 100.04-3.8 100.04-5.65L100.04-5.65ZM104.24-28.2L104.24-26.8Q104.24-21.65 104.29-20.43 104.34-19.2 104.64-19L104.64-19Q105.39-18.55 106.79-18.55L106.79-18.55 108.74-18.55Q112.99-18.55 114.82-20.5 116.64-22.45 116.64-25.53 116.64-28.6 114.22-31.15 111.79-33.7 106.89-33.7L106.89-33.7Q105.04-33.7 104.64-32.73 104.24-31.75 104.24-28.2L104.24-28.2ZM136.04-17.25L136.04-20.1 136.09-25.5 136.09-27.8Q136.09-30 135.92-31.33 135.74-32.65 134.57-33.3 133.39-33.95 132.24-34 131.09-34.05 131.09-34.77 131.09-35.5 132.49-35.5L132.49-35.5 138.14-35.3 142.54-35.4Q143.89-35.4 143.89-34.7L143.89-34.7Q143.89-34.3 141.59-33.35L141.59-33.35Q139.99-32.7 139.99-27.6L139.99-27.6 139.84-9.1Q139.84-4.9 141.02-3.2 142.19-1.5 143.49-1.5L143.49-1.5 144.49-1.45Q144.84-1.45 145.19-1.28 145.54-1.1 145.54-0.7L145.54-0.7Q145.54 0 144.29 0L144.29 0 139.54-0.2 134.04 0.05Q131.79 0.05 131.79-0.7L131.79-0.7Q131.79-1.4 133.34-1.6L133.34-1.6Q133.94-1.65 134.59-2.23 135.24-2.8 135.42-3.53 135.59-4.25 135.82-9.58 136.04-14.9 136.04-17.25L136.04-17.25ZM152.19-18.45L152.19-18.45 152.14-31.15Q152.14-32 151.31-32.88 150.49-33.75 149.64-33.8 148.79-33.85 148.46-33.9 148.14-33.95 147.81-34.23 147.49-34.5 147.49-34.98 147.49-35.45 147.91-35.52 148.34-35.6 150.04-35.6L150.04-35.6 154.39-35.6 164.14-35.8Q171.39-35.8 177.39-31.7L177.39-31.7Q180.29-29.75 182.09-26.58 183.89-23.4 183.89-19.7 183.89-16 183.41-13.43 182.94-10.85 181.84-8.97 180.74-7.1 179.64-5.93 178.54-4.75 176.84-3.35 175.14-1.95 172.29-0.9 169.44 0.15 166.44 0.15L166.44 0.15 154.44-0.1Q152.69-0.1 151.19 0.03 149.69 0.15 149.44 0.15L149.44 0.15Q148.24 0.15 148.24-0.5L148.24-0.5Q148.24-0.9 148.41-1.07 148.59-1.25 149.16-1.4 149.74-1.55 149.99-1.65L149.99-1.65Q150.79-2 151.46-2.98 152.14-3.95 152.14-4.9L152.14-4.9Q152.14-4.9 152.19-18.45ZM156.49-27.3L156.39-17.7 156.34-7.05Q156.34-4.7 156.84-3.7L156.84-3.7Q157.09-3.25 157.79-3.05 158.49-2.85 159.39-2.6 160.29-2.35 161.46-2.02 162.64-1.7 164.54-1.7L164.54-1.7 165.54-1.7Q168.94-1.7 171.34-2.68 173.74-3.65 175.94-5.75L175.94-5.75Q179.64-9.3 179.64-17.25L179.64-17.25Q179.64-21.25 178.06-24.5 176.49-27.75 173.94-29.7L173.94-29.7Q168.69-33.65 162.49-33.65L162.49-33.65 160.49-33.65Q158.09-33.65 157.29-32.8L157.29-32.8Q156.89-32.4 156.81-32.1 156.74-31.8 156.61-30.93 156.49-30.05 156.49-29.4L156.49-29.4 156.49-27.3ZM191.89-11.55L191.89-17.75 192.04-26.4Q192.04-27.75 191.94-30.95L191.94-30.95Q191.89-32.4 190.69-33.2 189.49-34 187.89-34.05L187.89-34.05Q187.09-34.05 187.09-34.95L187.09-34.95Q187.09-35.65 188.49-35.65L188.49-35.65 189.84-35.55 202.04-35.3 212.04-35.5Q212.99-35.5 212.99-34.35L212.99-34.35Q212.99-34.05 212.69-32.38 212.39-30.7 212.39-29.75L212.39-29.75Q212.39-28.15 211.61-28.15 210.84-28.15 210.84-29.35 210.84-30.55 209.99-31.65 209.14-32.75 207.89-32.8L207.89-32.8Q203.39-33.15 200.99-33.15L200.99-33.15 199.69-33.15Q197.09-33.15 196.69-32.8L196.69-32.8Q195.94-32.15 195.94-21.75L195.94-21.75Q195.94-19.25 196.89-19.2L196.89-19.2 201.79-19.2Q204.79-19.2 205.79-19.4L205.79-19.4Q208.39-19.9 208.74-22L208.74-22Q208.89-22.85 209.39-22.85 209.89-22.85 209.99-22.7 210.09-22.55 210.09-22.05L210.09-22.05 209.69-16.8 209.84-13.75Q209.84-12.5 209.49-12.5L209.49-12.5Q208.74-12.5 208.39-13.7L208.39-13.7Q207.69-15.8 207.14-16.15L207.14-16.15Q206.09-16.85 203.49-16.85L203.49-16.85 199.89-16.85 198.29-16.9 197.94-16.9Q195.89-16.9 195.89-15.95L195.89-15.95 195.79-8.75 195.79-6.75Q195.79-3.15 197.01-2.78 198.24-2.4 199.14-2.4L199.14-2.4Q206.64-2.4 209.99-3.6L209.99-3.6Q212.94-4.7 213.59-5.9L213.59-5.9Q214.19-7.15 214.69-7.15L214.69-7.15Q215.29-7.15 215.29-6.3L215.29-6.3Q215.29-4.15 213.14-1.95 210.99 0.25 209.39 0.25L209.39 0.25Q205.79 0.25 201.26 0 196.74-0.25 195.64-0.25L195.64-0.25 188.84 0.2Q187.79 0.2 187.79-0.3L187.79-0.3 187.79-0.9Q187.79-1.2 188.29-1.3L188.29-1.3Q188.84-1.35 189.99-1.9 191.14-2.45 191.51-4.2 191.89-5.95 191.89-11.55L191.89-11.55Z" opacity="1" transform="matrix(1,0,0,1,0,0)" fill="#000000" class="undefined-text-0" data-fill-palette-color="primary" id="text-0"></path></svg></g></svg></g><g transform="matrix(1,0,0,1,0,84.77047490973251)"><svg viewBox="0 0 395.52 42.38263140309713" height="42.38263140309713" width="395.52"><g transform="matrix(1,0,0,1,0,0)"><svg width="395.52" viewBox="4.699999809265137 -37 438.6099853515625 47" height="42.38263140309713" data-palette-color="#ffffff"><path d="M6.2-35L19.45-35Q23.65-35 26.03-32.73 28.4-30.45 28.4-26.4L28.4-26.4Q28.4-24.3 27.5-22.4 26.6-20.5 24.85-19.33 23.1-18.15 20.5-18L20.5-18 20.3-19Q22.15-19 23.93-18.48 25.7-17.95 27.1-16.8 28.5-15.65 29.35-13.93 30.2-12.2 30.2-9.75L30.2-9.75Q30.2-7.15 29.33-5.28 28.45-3.4 26.98-2.25 25.5-1.1 23.6-0.55 21.7 0 19.65 0L19.65 0 6.2 0Q5.6 0 5.15-0.45 4.7-0.9 4.7-1.5L4.7-1.5 4.7-33.5Q4.7-34.1 5.15-34.55 5.6-35 6.2-35L6.2-35ZM19.05-32.05L19.05-32.05 7.3-32.05 7.9-32.95 7.9-18.8 7.35-19.55 19.05-19.55Q21.65-19.6 23.43-21.25 25.2-22.9 25.2-26.15L25.2-26.15Q25.2-28.9 23.6-30.48 22-32.05 19.05-32.05ZM19.4-16.55L19.4-16.55 7.65-16.55 7.9-16.85 7.9-2.5 7.6-2.95 19.5-2.95Q22.7-2.95 24.85-4.58 27-6.2 27-9.75L27-9.75Q27-12.25 25.95-13.75 24.9-15.25 23.15-15.9 21.4-16.55 19.4-16.55ZM40.34-24.5L40.34-1.5Q40.34-0.9 39.89-0.45 39.44 0 38.84 0L38.84 0Q38.19 0 37.77-0.45 37.34-0.9 37.34-1.5L37.34-1.5 37.34-24.5Q37.34-25.1 37.77-25.55 38.19-26 38.84-26L38.84-26Q39.49-26 39.92-25.55 40.34-25.1 40.34-24.5L40.34-24.5ZM38.84-29.35L38.84-29.35Q37.79-29.35 37.27-29.83 36.74-30.3 36.74-31.2L36.74-31.2 36.74-31.7Q36.74-32.6 37.32-33.08 37.89-33.55 38.89-33.55L38.89-33.55Q39.84-33.55 40.37-33.08 40.89-32.6 40.89-31.7L40.89-31.7 40.89-31.2Q40.89-30.3 40.37-29.83 39.84-29.35 38.84-29.35ZM50.89 0L50.89 0Q50.24 0 49.81-0.45 49.39-0.9 49.39-1.5L49.39-1.5 49.39-35.5Q49.39-36.1 49.81-36.55 50.24-37 50.89-37L50.89-37Q51.54-37 51.96-36.55 52.39-36.1 52.39-35.5L52.39-35.5 52.39-1.5Q52.39-0.9 51.96-0.45 51.54 0 50.89 0ZM67.89-25.65L67.89-25.65Q68.44-25.65 68.89-25.18 69.34-24.7 69.34-24.15L69.34-24.15Q69.34-23.5 68.79-23L68.79-23 51.99-8.7 51.84-12.25 66.84-25.15Q67.29-25.65 67.89-25.65ZM68.29 0L68.29 0Q67.64 0 67.19-0.55L67.19-0.55 55.79-12.65 58.04-14.7 69.34-2.65Q69.79-2.15 69.79-1.5L69.79-1.5Q69.79-0.8 69.24-0.4 68.69 0 68.29 0ZM87.03 0.5L87.03 0.5Q83.18 0.5 80.23-1.15 77.28-2.8 75.63-5.75 73.98-8.7 73.98-12.65L73.98-12.65Q73.98-16.9 75.66-19.9 77.33-22.9 80.01-24.53 82.68-26.15 85.68-26.15L85.68-26.15Q87.88-26.15 89.96-25.38 92.03-24.6 93.63-23.08 95.23-21.55 96.23-19.35 97.23-17.15 97.28-14.25L97.28-14.25Q97.28-13.65 96.83-13.23 96.38-12.8 95.78-12.8L95.78-12.8 75.73-12.8 75.13-15.5 94.83-15.5 94.18-14.9 94.18-15.9Q93.93-18.25 92.63-19.9 91.33-21.55 89.51-22.4 87.68-23.25 85.68-23.25L85.68-23.25Q84.18-23.25 82.61-22.65 81.03-22.05 79.76-20.78 78.48-19.5 77.68-17.53 76.88-15.55 76.88-12.85L76.88-12.85Q76.88-9.9 78.08-7.5 79.28-5.1 81.53-3.7 83.78-2.3 86.98-2.3L86.98-2.3Q88.68-2.3 90.08-2.8 91.48-3.3 92.56-4.13 93.63-4.95 94.33-5.85L94.33-5.85Q94.88-6.3 95.38-6.3L95.38-6.3Q95.93-6.3 96.31-5.9 96.68-5.5 96.68-5L96.68-5Q96.68-4.4 96.18-3.95L96.18-3.95Q94.68-2.15 92.28-0.83 89.88 0.5 87.03 0.5ZM102.98-4.05L102.98-4.05Q102.58-4.65 102.6-5.23 102.63-5.8 103.23-6.15L103.23-6.15Q103.63-6.5 104.15-6.45 104.68-6.4 105.13-5.95L105.13-5.95Q106.48-4.2 108.4-3.13 110.33-2.05 112.98-2.05L112.98-2.05Q114.38-2.05 115.75-2.53 117.13-3 118.03-3.98 118.93-4.95 118.93-6.45L118.93-6.45Q118.93-8 118.03-8.95 117.13-9.9 115.7-10.45 114.28-11 112.68-11.4L112.68-11.4Q110.98-11.85 109.38-12.43 107.78-13 106.55-13.88 105.33-14.75 104.58-16 103.83-17.25 103.83-19.05L103.83-19.05Q103.83-21.15 104.98-22.75 106.13-24.35 108.1-25.25 110.08-26.15 112.58-26.15L112.58-26.15Q113.83-26.15 115.28-25.83 116.73-25.5 118.13-24.75 119.53-24 120.63-22.7L120.63-22.7Q121.08-22.25 121.08-21.68 121.08-21.1 120.58-20.65L120.58-20.65Q120.18-20.35 119.65-20.35 119.13-20.35 118.78-20.75L118.78-20.75Q117.58-22.1 115.93-22.8 114.28-23.5 112.38-23.5L112.38-23.5Q110.93-23.5 109.65-23.03 108.38-22.55 107.53-21.6 106.68-20.65 106.68-19.1L106.68-19.1Q106.78-17.65 107.7-16.75 108.63-15.85 110.15-15.25 111.68-14.65 113.58-14.15L113.58-14.15Q115.18-13.75 116.65-13.2 118.13-12.65 119.25-11.83 120.38-11 121.05-9.75 121.73-8.5 121.73-6.6L121.73-6.6Q121.73-4.4 120.5-2.8 119.28-1.2 117.23-0.35 115.18 0.5 112.68 0.5L112.68 0.5Q109.98 0.5 107.45-0.55 104.93-1.6 102.98-4.05ZM152.67-36.8L152.67-36.8Q153.42-36.8 154.29-36.65 155.17-36.5 155.82-36.13 156.47-35.75 156.47-35L156.47-35Q156.47-34.45 156.07-34.02 155.67-33.6 155.17-33.6L155.17-33.6Q154.67-33.6 153.92-33.88 153.17-34.15 152.32-34.15L152.32-34.15Q151.27-34.15 150.52-33.68 149.77-33.2 149.37-32.33 148.97-31.45 148.97-30.2L148.97-30.2 148.97-1.5Q148.97-0.9 148.54-0.45 148.12 0 147.47 0L147.47 0Q146.82 0 146.39-0.45 145.97-0.9 145.97-1.5L145.97-1.5 145.97-30.2Q145.97-33.4 147.84-35.1 149.72-36.8 152.67-36.8ZM142.32-25.05L154.57-25.05Q155.17-25.05 155.57-24.65 155.97-24.25 155.97-23.65L155.97-23.65Q155.97-23.05 155.57-22.65 155.17-22.25 154.57-22.25L154.57-22.25 142.32-22.25Q141.77-22.25 141.34-22.68 140.92-23.1 140.92-23.65L140.92-23.65Q140.92-24.3 141.34-24.68 141.77-25.05 142.32-25.05L142.32-25.05ZM185.61-12.8L185.61-12.8Q185.61-9 183.94-5.98 182.26-2.95 179.41-1.23 176.56 0.5 172.96 0.5L172.96 0.5Q169.41 0.5 166.54-1.23 163.66-2.95 161.99-5.98 160.31-9 160.31-12.8L160.31-12.8Q160.31-16.65 161.99-19.65 163.66-22.65 166.54-24.4 169.41-26.15 172.96-26.15L172.96-26.15Q176.56-26.15 179.41-24.4 182.26-22.65 183.94-19.65 185.61-16.65 185.61-12.8ZM182.61-12.8L182.61-12.8Q182.61-15.85 181.36-18.23 180.11-20.6 177.94-21.98 175.76-23.35 172.96-23.35L172.96-23.35Q170.21-23.35 168.04-21.98 165.86-20.6 164.59-18.23 163.31-15.85 163.31-12.8L163.31-12.8Q163.31-9.75 164.59-7.4 165.86-5.05 168.04-3.68 170.21-2.3 172.96-2.3L172.96-2.3Q175.76-2.3 177.94-3.68 180.11-5.05 181.36-7.4 182.61-9.75 182.61-12.8ZM194.21 0L194.21 0Q193.51 0 193.11-0.45 192.71-0.9 192.71-1.5L192.71-1.5 192.71-23.9Q192.71-24.5 193.13-24.95 193.56-25.4 194.21-25.4L194.21-25.4Q194.86-25.4 195.28-24.95 195.71-24.5 195.71-23.9L195.71-23.9 195.71-16.4 194.96-16.25Q195.11-18 195.83-19.73 196.56-21.45 197.81-22.9 199.06-24.35 200.78-25.25 202.51-26.15 204.66-26.15L204.66-26.15Q205.56-26.15 206.41-25.78 207.26-25.4 207.26-24.55L207.26-24.55Q207.26-23.8 206.86-23.4 206.46-23 205.91-23L205.91-23Q205.46-23 204.93-23.25 204.41-23.5 203.56-23.5L203.56-23.5Q202.16-23.5 200.76-22.68 199.36-21.85 198.21-20.45 197.06-19.05 196.38-17.32 195.71-15.6 195.71-13.85L195.71-13.85 195.71-1.5Q195.71-0.9 195.26-0.45 194.81 0 194.21 0ZM238.85 0.5L238.85 0.5Q235 0.5 232.05-1.15 229.1-2.8 227.45-5.75 225.8-8.7 225.8-12.65L225.8-12.65Q225.8-16.9 227.47-19.9 229.15-22.9 231.82-24.53 234.5-26.15 237.5-26.15L237.5-26.15Q239.7-26.15 241.77-25.38 243.85-24.6 245.45-23.08 247.05-21.55 248.05-19.35 249.05-17.15 249.1-14.25L249.1-14.25Q249.1-13.65 248.65-13.23 248.2-12.8 247.6-12.8L247.6-12.8 227.55-12.8 226.95-15.5 246.65-15.5 246-14.9 246-15.9Q245.75-18.25 244.45-19.9 243.15-21.55 241.32-22.4 239.5-23.25 237.5-23.25L237.5-23.25Q236-23.25 234.42-22.65 232.85-22.05 231.57-20.78 230.3-19.5 229.5-17.53 228.7-15.55 228.7-12.85L228.7-12.85Q228.7-9.9 229.9-7.5 231.1-5.1 233.35-3.7 235.6-2.3 238.8-2.3L238.8-2.3Q240.5-2.3 241.9-2.8 243.3-3.3 244.37-4.13 245.45-4.95 246.15-5.85L246.15-5.85Q246.7-6.3 247.2-6.3L247.2-6.3Q247.75-6.3 248.12-5.9 248.5-5.5 248.5-5L248.5-5Q248.5-4.4 248-3.95L248-3.95Q246.5-2.15 244.1-0.83 241.7 0.5 238.85 0.5ZM255.39-26.1L255.39-26.1Q255.79-26.1 256.19-25.85 256.59-25.6 256.79-25.1L256.79-25.1 265.54-4.3 264.89-3.9 273.84-25.1Q274.24-26.1 275.29-26.05L275.29-26.05Q275.79-26.05 276.24-25.73 276.69-25.4 276.69-24.8L276.69-24.8Q276.69-24.5 276.62-24.33 276.54-24.15 276.49-23.95L276.49-23.95 266.69-0.95Q266.29-0.05 265.34 0L265.34 0Q264.89 0.05 264.47-0.23 264.04-0.5 263.84-0.95L263.84-0.95 253.99-23.95Q253.94-24.05 253.89-24.25 253.84-24.45 253.84-24.65L253.84-24.65Q253.84-25.2 254.24-25.65 254.64-26.1 255.39-26.1ZM294.49 0.5L294.49 0.5Q290.64 0.5 287.69-1.15 284.74-2.8 283.09-5.75 281.44-8.7 281.44-12.65L281.44-12.65Q281.44-16.9 283.11-19.9 284.79-22.9 287.46-24.53 290.14-26.15 293.14-26.15L293.14-26.15Q295.34-26.15 297.41-25.38 299.49-24.6 301.09-23.08 302.69-21.55 303.69-19.35 304.69-17.15 304.74-14.25L304.74-14.25Q304.74-13.65 304.29-13.23 303.84-12.8 303.24-12.8L303.24-12.8 283.19-12.8 282.59-15.5 302.29-15.5 301.64-14.9 301.64-15.9Q301.39-18.25 300.09-19.9 298.79-21.55 296.96-22.4 295.14-23.25 293.14-23.25L293.14-23.25Q291.64-23.25 290.06-22.65 288.49-22.05 287.21-20.78 285.94-19.5 285.14-17.53 284.34-15.55 284.34-12.85L284.34-12.85Q284.34-9.9 285.54-7.5 286.74-5.1 288.99-3.7 291.24-2.3 294.44-2.3L294.44-2.3Q296.14-2.3 297.54-2.8 298.94-3.3 300.01-4.13 301.09-4.95 301.79-5.85L301.79-5.85Q302.34-6.3 302.84-6.3L302.84-6.3Q303.39-6.3 303.76-5.9 304.14-5.5 304.14-5L304.14-5Q304.14-4.4 303.64-3.95L303.64-3.95Q302.14-2.15 299.74-0.83 297.34 0.5 294.49 0.5ZM313.38 0L313.38 0Q312.68 0 312.28-0.45 311.88-0.9 311.88-1.5L311.88-1.5 311.88-23.9Q311.88-24.5 312.31-24.95 312.73-25.4 313.38-25.4L313.38-25.4Q314.03-25.4 314.46-24.95 314.88-24.5 314.88-23.9L314.88-23.9 314.88-16.4 314.13-16.25Q314.28-18 315.01-19.73 315.73-21.45 316.98-22.9 318.23-24.35 319.96-25.25 321.68-26.15 323.83-26.15L323.83-26.15Q324.73-26.15 325.58-25.78 326.43-25.4 326.43-24.55L326.43-24.55Q326.43-23.8 326.03-23.4 325.63-23 325.08-23L325.08-23Q324.63-23 324.11-23.25 323.58-23.5 322.73-23.5L322.73-23.5Q321.33-23.5 319.93-22.68 318.53-21.85 317.38-20.45 316.23-19.05 315.56-17.32 314.88-15.6 314.88-13.85L314.88-13.85 314.88-1.5Q314.88-0.9 314.43-0.45 313.98 0 313.38 0ZM351.13-26L351.13-26Q351.78-26 352.2-25.55 352.63-25.1 352.63-24.5L352.63-24.5 352.63-2.45Q352.63 1.6 351.03 4.38 349.43 7.15 346.73 8.58 344.03 10 340.58 10L340.58 10Q338.43 10 336.6 9.53 334.78 9.05 333.63 8.3L333.63 8.3Q333.03 7.95 332.73 7.45 332.43 6.95 332.68 6.4L332.68 6.4Q332.93 5.7 333.45 5.48 333.98 5.25 334.53 5.5L334.53 5.5Q335.38 5.95 336.98 6.6 338.58 7.25 340.63 7.25L340.63 7.25Q343.38 7.25 345.4 6.1 347.43 4.95 348.53 2.78 349.63 0.6 349.63-2.4L349.63-2.4 349.63-6 349.98-4.8Q349.23-3.25 347.85-2.05 346.48-0.85 344.7-0.18 342.93 0.5 340.93 0.5L340.93 0.5Q337.93 0.5 335.95-0.73 333.98-1.95 333.03-4.1 332.08-6.25 332.08-9.15L332.08-9.15 332.08-24.5Q332.08-25.1 332.48-25.55 332.88-26 333.58-26L333.58-26Q334.23-26 334.65-25.55 335.08-25.1 335.08-24.5L335.08-24.5 335.08-9.6Q335.08-6.1 336.6-4.2 338.13-2.3 341.58-2.3L341.58-2.3Q343.73-2.3 345.53-3.33 347.33-4.35 348.48-6.03 349.63-7.7 349.63-9.6L349.63-9.6 349.63-24.5Q349.63-25.1 350.05-25.55 350.48-26 351.13-26ZM384.77-12.8L384.77-12.8Q384.77-9 383.1-5.98 381.42-2.95 378.57-1.23 375.72 0.5 372.12 0.5L372.12 0.5Q368.57 0.5 365.7-1.23 362.82-2.95 361.15-5.98 359.47-9 359.47-12.8L359.47-12.8Q359.47-16.65 361.15-19.65 362.82-22.65 365.7-24.4 368.57-26.15 372.12-26.15L372.12-26.15Q375.72-26.15 378.57-24.4 381.42-22.65 383.1-19.65 384.77-16.65 384.77-12.8ZM381.77-12.8L381.77-12.8Q381.77-15.85 380.52-18.23 379.27-20.6 377.1-21.98 374.92-23.35 372.12-23.35L372.12-23.35Q369.37-23.35 367.2-21.98 365.02-20.6 363.75-18.23 362.47-15.85 362.47-12.8L362.47-12.8Q362.47-9.75 363.75-7.4 365.02-5.05 367.2-3.68 369.37-2.3 372.12-2.3L372.12-2.3Q374.92-2.3 377.1-3.68 379.27-5.05 380.52-7.4 381.77-9.75 381.77-12.8ZM403.92-26.15L403.92-26.15Q407.22-26.15 409.19-24.83 411.17-23.5 412.04-21.23 412.92-18.95 412.92-16.2L412.92-16.2 412.92-1.5Q412.92-0.9 412.47-0.45 412.02 0 411.42 0L411.42 0Q410.72 0 410.32-0.45 409.92-0.9 409.92-1.5L409.92-1.5 409.92-16.05Q409.92-18.05 409.27-19.7 408.62-21.35 407.14-22.35 405.67-23.35 403.27-23.35L403.27-23.35Q401.12-23.35 399.19-22.35 397.27-21.35 396.07-19.7 394.87-18.05 394.87-16.05L394.87-16.05 394.87-1.5Q394.87-0.9 394.42-0.45 393.97 0 393.37 0L393.37 0Q392.67 0 392.27-0.45 391.87-0.9 391.87-1.5L391.87-1.5 391.87-23.9Q391.87-24.5 392.29-24.95 392.72-25.4 393.37-25.4L393.37-25.4Q394.02-25.4 394.44-24.95 394.87-24.5 394.87-23.9L394.87-23.9 394.87-19.7 393.72-17.9Q393.82-19.5 394.74-20.98 395.67-22.45 397.12-23.63 398.57-24.8 400.34-25.48 402.12-26.15 403.92-26.15ZM433.06 0.5L433.06 0.5Q429.21 0.5 426.26-1.15 423.31-2.8 421.66-5.75 420.01-8.7 420.01-12.65L420.01-12.65Q420.01-16.9 421.68-19.9 423.36-22.9 426.03-24.53 428.71-26.15 431.71-26.15L431.71-26.15Q433.91-26.15 435.98-25.38 438.06-24.6 439.66-23.08 441.26-21.55 442.26-19.35 443.26-17.15 443.31-14.25L443.31-14.25Q443.31-13.65 442.86-13.23 442.41-12.8 441.81-12.8L441.81-12.8 421.76-12.8 421.16-15.5 440.86-15.5 440.21-14.9 440.21-15.9Q439.96-18.25 438.66-19.9 437.36-21.55 435.53-22.4 433.71-23.25 431.71-23.25L431.71-23.25Q430.21-23.25 428.63-22.65 427.06-22.05 425.78-20.78 424.51-19.5 423.71-17.53 422.91-15.55 422.91-12.85L422.91-12.85Q422.91-9.9 424.11-7.5 425.31-5.1 427.56-3.7 429.81-2.3 433.01-2.3L433.01-2.3Q434.71-2.3 436.11-2.8 437.51-3.3 438.58-4.13 439.66-4.95 440.36-5.85L440.36-5.85Q440.91-6.3 441.41-6.3L441.41-6.3Q441.96-6.3 442.33-5.9 442.71-5.5 442.71-5L442.71-5Q442.71-4.4 442.21-3.95L442.21-3.95Q440.71-2.15 438.31-0.83 435.91 0.5 433.06 0.5Z" opacity="1" transform="matrix(1,0,0,1,0,0)" fill="#000000" class="undefined-text-1" data-fill-palette-color="secondary" id="text-1"></path></svg></g></svg></g></svg></g></svg></g><g transform="matrix(1,0,0,1,75.54432,0)"><svg viewBox="0 0 244.43135999999998 150.21627873377102" height="150.21627873377102" width="244.43135999999998"><g><svg xmlns="http://www.w3.org/2000/svg" data-name="Layer 1" viewBox="2.430551767349243 20.791906356811523 95.1390609741211 58.46809387207031" x="0" y="0" height="150.21627873377102" width="244.43135999999998" class="icon-icon-0" data-fill-palette-color="accent" id="icon-0"><path d="M62.78 23l32 55.42 1.3-2.26h-64l1.3 2.26L65.37 23a1.5 1.5 0 0 0-2.59-1.51L30.79 77a1.51 1.51 0 0 0 1.3 2.26h64A1.51 1.51 0 0 0 97.37 77l-32-55.42A1.5 1.5 0 0 0 62.78 23Z" fill="#000000" data-fill-palette-color="accent"></path><path d="M34.63 23l32 55.42 1.3-2.26h-64l1.3 2.26L37.22 23a1.5 1.5 0 0 0-2.59-1.51L2.63 77a1.51 1.51 0 0 0 1.3 2.26h64A1.51 1.51 0 0 0 69.21 77l-32-55.42A1.5 1.5 0 0 0 34.63 23Z" fill="#000000" data-fill-palette-color="accent"></path></svg></g></svg></g><g></g></svg></g></svg><rect width="333.0586380828195" height="247.2" fill="none" stroke="none" visibility="hidden"></rect></g></svg></g></svg>